<svg xmlns="http://www.w3.org/2000/svg" viewBox="0 0 200 200" role="img" aria-label="COPAG - SEPIN">
  <title>COPAG - SEPIN</title>
  <!-- Simbolo da COPAG (versao "congresso"): arco que vira pontos, torres que crescem, cupulas. Mesmo do SIGAP. -->
  <g transform="translate(6,14)">
    <path d="M 34 100 A 66 66 0 0 1 100 34" fill="none" stroke="#1E4034" stroke-width="7" stroke-linecap="round"/>
    <circle cx="112.6" cy="35.2" r="4.6" fill="#1E4034"/>
    <circle cx="124.8" cy="38.7" r="4.5" fill="#1E4034"/>
    <circle cx="136.3" cy="44.6" r="4.3" fill="#22483A"/>
    <circle cx="146.7" cy="52.6" r="4.1" fill="#265040"/>
    <circle cx="155.6" cy="62.4" r="3.9" fill="#2A5745"/>
    <circle cx="162.7" cy="73.6" r="3.6" fill="#2F6B55"/>
    <circle cx="167.8" cy="85.9" r="3.3" fill="#3A7460"/>
    <circle cx="170.7" cy="98.8" r="3.0" fill="#4A8270"/>
    <circle cx="171.3" cy="112.0" r="2.6" fill="#5C9080"/>
    <circle cx="169.6" cy="125.1" r="2.2" fill="#6E9E8E"/>
    <circle cx="165.6" cy="137.6" r="1.8" fill="#84AE9F"/>
    <circle cx="159.5" cy="149.2" r="1.4" fill="#9BBDB0"/>
    <path d="M 62 152 L 62 118 L 76 112 L 76 152 Z"  fill="#5C9080"/>
    <path d="M 82 152 L 82 108 L 96 101 L 96 152 Z"  fill="#45846F"/>
    <path d="M 108 152 L 108 74 L 124 64 L 124 152 Z" fill="#2F6B55"/>
    <path d="M 130 152 L 130 62 L 146 51 L 146 152 Z" fill="#1E4034"/>
    <path d="M 26 158 C 60 176 92 180 100 166 C 68 172 46 166 26 158 Z" fill="#1E4034"/>
    <path d="M 104 166 C 112 180 144 176 178 158 C 158 166 136 172 104 166 Z" fill="#2F6B55"/>
  </g>
</svg>
